<?xml version="1.0" standalone="no"?>
<!DOCTYPE svg PUBLIC "-//W3C//DTD SVG 20010904//EN"
 "http://www.w3.org/TR/2001/REC-SVG-20010904/DTD/svg10.dtd">
<svg version="1.0" xmlns="http://www.w3.org/2000/svg"
 width="1048.000000pt" height="852.000000pt" viewBox="0 0 1048.000000 852.000000"
 preserveAspectRatio="xMidYMid meet">

<g transform="translate(0.000000,852.000000) scale(0.100000,-0.100000)"
fill="#D9D9D9" stroke="none">
<path d="M2916 6392 c-1526 -3583 -1836 -4311 -2181 -5122 -191 -448 -351
-825 -355 -836 -8 -21 -7 -21 33 -12 45 10 5016 1149 5797 1328 261 60 1253
287 2205 505 951 218 1731 398 1733 400 2 2 -13 19 -35 38 -156 140 -6388
5577 -6392 5577 -3 0 -366 -845 -805 -1878z"/>
</g>
</svg>
