<?xml version="1.0" standalone="no"?>
<!DOCTYPE svg PUBLIC "-//W3C//DTD SVG 20010904//EN"
 "http://www.w3.org/TR/2001/REC-SVG-20010904/DTD/svg10.dtd">
<svg version="1.0" xmlns="http://www.w3.org/2000/svg"
 width="405.000000pt" height="82.000000pt" viewBox="0 0 405.000000 82.000000"
 preserveAspectRatio="xMidYMid meet">

<g transform="translate(0.000000,82.000000) scale(0.100000,-0.100000)"
fill="#000000" stroke="none">
<path d="M235 686 c-59 -28 -108 -74 -138 -130 -32 -59 -32 -213 0 -271 30
-57 80 -104 138 -131 l50 -24 1740 0 1740 0 50 24 c58 27 108 74 138 131 32
58 32 212 0 271 -31 58 -79 103 -138 130 l-50 24 -1740 0 -1740 0 -50 -24z
m2455 -94 c55 -41 70 -78 70 -172 0 -74 -3 -92 -22 -120 -45 -66 -68 -75 -183
-75 -112 0 -134 8 -179 69 -25 32 -35 158 -17 215 13 46 59 90 103 102 56 14
199 2 228 -19z m298 -84 c61 -62 120 -124 131 -138 l20 -25 1 133 0 133 38 -3
37 -3 3 -177 c2 -150 0 -178 -13 -192 -9 -9 -21 -16 -26 -16 -6 0 -71 62 -144
138 l-134 137 -1 -132 0 -133 -35 0 -35 0 0 185 c0 165 2 185 18 194 9 6 20
11 23 11 3 0 56 -51 117 -112z m-2428 67 l0 -35 -140 0 -141 0 3 -117 3 -118
140 -5 c77 -3 139 -8 138 -12 -2 -5 -3 -19 -3 -33 l0 -25 -144 0 c-138 0 -144
1 -170 25 l-26 24 0 159 c0 87 3 162 7 165 3 4 80 7 170 7 l163 0 0 -35z m440
0 l0 -34 -152 -3 -153 -3 0 -115 0 -115 123 -3 122 -3 0 40 0 40 -92 3 -93 3
-3 38 -3 37 115 0 c144 0 146 -1 146 -111 0 -124 7 -119 -175 -119 -148 0
-155 1 -182 24 l-28 24 0 142 0 142 28 24 c27 23 33 24 188 24 l159 0 0 -35z
m130 -39 c0 -106 21 -122 145 -113 89 6 95 13 95 108 l0 79 35 0 35 0 0 -91
c0 -90 0 -91 -34 -125 -22 -22 -47 -35 -75 -40 l-41 -7 0 -58 0 -59 -35 0 -35
0 0 60 c0 55 -2 60 -22 60 -13 0 -42 9 -66 20 -55 25 -72 64 -72 165 l0 75 35
0 35 0 0 -74z m722 51 c8 -42 0 -47 -78 -47 l-74 0 0 -155 0 -155 -35 0 -35 0
0 155 0 155 -75 0 -75 0 0 35 0 35 184 0 c183 0 184 0 188 -23z m413 -2 c21
-20 25 -34 25 -82 0 -74 -26 -119 -80 -141 l-40 -15 42 -36 c23 -20 54 -46 68
-58 l25 -22 -55 -1 c-53 0 -57 2 -123 60 -42 37 -77 60 -92 60 -25 0 -39 23
-30 50 5 15 20 19 96 22 103 3 119 14 119 80 l0 38 -120 0 -120 0 0 -155 0
-155 -40 0 -40 0 0 171 c0 98 4 178 10 190 10 18 23 19 171 19 156 0 160 -1
184 -25z m1105 -165 l0 -190 -35 0 -35 0 0 190 0 190 35 0 35 0 0 -190z m195
124 l61 -67 54 66 c54 64 56 66 104 66 56 1 60 11 -41 -107 -35 -40 -63 -77
-63 -83 0 -6 28 -43 63 -83 100 -114 97 -106 41 -106 -48 0 -50 1 -103 67
l-55 66 -60 -67 c-59 -66 -62 -67 -104 -64 l-43 3 76 89 c41 50 75 93 75 96 0
3 -34 45 -75 93 -41 48 -75 90 -75 92 0 3 19 5 43 5 39 0 46 -4 102 -66z
m-3035 -124 l0 -41 -107 3 -108 3 -3 38 -3 37 110 0 111 0 0 -40z"/>
<path d="M2480 543 c-8 -3 -25 -15 -37 -26 -20 -18 -23 -30 -23 -97 0 -69 2
-79 26 -101 23 -21 35 -24 109 -24 74 0 86 3 109 24 24 22 26 32 26 101 0 69
-2 79 -26 101 -21 20 -37 24 -97 26 -40 1 -79 0 -87 -4z"/>
</g>
</svg>
